<?xml version="1.0" encoding="UTF-8"?><svg id="Camada_2" xmlns="http://www.w3.org/2000/svg" xmlns:xlink="http://www.w3.org/1999/xlink" viewBox="0 0 87.53 86.91"><defs><style>.cls-1,.cls-2{fill:none;}.cls-3{fill:#fff;}.cls-4{fill:url(#Nova_amostra_de_gradiente_1);}.cls-2{stroke:#1e8bb0;}</style><linearGradient id="Nova_amostra_de_gradiente_1" x1="726.83" y1="6297.69" x2="726.02" y2="6297.66" gradientTransform="translate(-90741.33 787253.23) scale(125 -125)" gradientUnits="userSpaceOnUse"><stop offset=".22" stop-color="#0b3b4b"/><stop offset="1" stop-color="#50d7e2"/></linearGradient></defs><g id="Camada_1-2"><circle id="Elipse_21" class="cls-4" cx="45.03" cy="44.41" r="42.5"/><g id="Grupo_385"><g id="Elipse_126"><circle class="cls-1" cx="50.72" cy="38.81" r="17.39"/><path class="cls-3" d="m50.72,56.36c-9.68,0-17.55-7.87-17.55-17.55s7.87-17.55,17.55-17.55,17.55,7.87,17.55,17.55-7.87,17.55-17.55,17.55Zm0-30.34c-7.05,0-12.79,5.74-12.79,12.79s5.74,12.79,12.79,12.79,12.79-5.74,12.79-12.79-5.74-12.79-12.79-12.79Z"/></g><path id="Retângulo_267" class="cls-3" d="m34.98,49.84l4.71,4.71h0l-12.02,12.02c-1.3,1.3-3.41,1.3-4.71,0h0c-1.3-1.3-1.3-3.41,0-4.71l12.02-12.02h0Z"/><g id="Caminho_410"><path class="cls-3" d="m60.66,41.19c-.88,0-1.59-.71-1.59-1.59,0-5.04-4.1-9.14-9.14-9.14-.88,0-1.59-.71-1.59-1.59s.71-1.59,1.59-1.59c6.79,0,12.32,5.53,12.32,12.32,0,.88-.71,1.59-1.59,1.59Z"/></g></g><circle class="cls-2" cx="42.81" cy="42.81" r="42.31"/></g></svg>