<?xml version="1.0" encoding="UTF-8"?><svg id="Camada_2" xmlns="http://www.w3.org/2000/svg" xmlns:xlink="http://www.w3.org/1999/xlink" viewBox="0 0 87.74 87.55"><defs><style>.cls-1{fill:#fff;}.cls-2{fill:url(#Nova_amostra_de_gradiente_1);}.cls-3{fill:none;stroke:#1e8bb0;}</style><linearGradient id="Nova_amostra_de_gradiente_1" x1="1346.84" y1="6071.45" x2="1346.08" y2="6071.17" gradientTransform="translate(-168246.55 758953.34) scale(125 -125)" gradientUnits="userSpaceOnUse"><stop offset=".22" stop-color="#0b3b4b"/><stop offset="1" stop-color="#50d7e2"/></linearGradient></defs><g id="Camada_1-2"><circle id="Elipse_21" class="cls-2" cx="45.24" cy="45.05" r="42.5"/><circle class="cls-3" cx="42.81" cy="42.81" r="42.31"/><path class="cls-1" d="m62.69,31.1l-12.63-8.03c-1.3-.83-2.95-.85-4.27-.07h0c-1.87,1.11-2.43,3.34-1.67,5.12-.38.21-.74.47-1.06.81l-7.14,7.61-1.07-.68c-1.2-.76-2.71-.85-3.99-.22l-2.67,1.31c-2.86,1.4-3.08,5.4-.39,7.11l10.4,6.62-5.7,9.12s-.01.03-.02.04l-1.97,7.67c-.03.13.12.22.22.14l6.24-4.96s.02-.02.03-.04l5.7-9.11,10.42,6.62c2.69,1.71,6.22-.18,6.27-3.37l.05-2.97c.03-1.42-.69-2.76-1.89-3.52l-1.07-.68,3.87-9.7c.17-.42.26-.86.28-1.3,1.94-.07,3.72-1.52,3.93-3.68h0c.15-1.53-.58-3.01-1.87-3.84Zm-14.93.79l-6.15,7.39c-.54.65-1.5.73-2.14.2-.65-.54-.73-1.5-.2-2.14l6.15-7.39c.54-.65,1.5-.73,2.14-.2.65.54.73,1.5.2,2.14Z"/></g></svg>