<?xml version="1.0" encoding="UTF-8"?><svg id="Camada_2" xmlns="http://www.w3.org/2000/svg" xmlns:xlink="http://www.w3.org/1999/xlink" viewBox="0 0 87.22 87"><defs><style>.cls-1{fill:#fff;}.cls-2{fill:url(#Nova_amostra_de_gradiente_1);}.cls-3{fill:none;stroke:#1e8bb0;}</style><linearGradient id="Nova_amostra_de_gradiente_1" x1="726.83" y1="6409.51" x2="726.01" y2="6409.48" gradientTransform="translate(-90741.33 801231.3) scale(125 -125)" gradientUnits="userSpaceOnUse"><stop offset=".22" stop-color="#0b3b4b"/><stop offset="1" stop-color="#50d7e2"/></linearGradient></defs><g id="Camada_1-2"><circle id="Elipse_21" class="cls-2" cx="44.72" cy="44.5" r="42.5"/><g id="Grupo_289"><path id="Subtração_33" class="cls-1" d="m38.02,59.62h-10.19V23.62h27.07v4.82h-16.88v31.18Z"/><path id="Subtração_34" class="cls-1" d="m66.74,65.06h-27.06V29.54h20.3v6.77h6.76l-6.76-6.77h.88l5.89,5.92v29.6h0Zm-9.23-21.03v7.74h1.6v-3.16h3.06v-1.29h-3.06v-2h3.44v-1.29h-5.04Zm-7.07,0v7.74h2.4c.64,0,1.27-.16,1.82-.47.53-.3.97-.76,1.25-1.3.3-.59.46-1.25.44-1.92v-.36c.01-.67-.14-1.33-.45-1.93-.29-.55-.72-1-1.26-1.31-.56-.31-1.19-.47-1.83-.46h-2.38Zm-7.02,0v7.74h1.59v-2.73h1.4c.77.04,1.54-.19,2.15-.66.52-.45.81-1.11.78-1.79,0-.47-.12-.93-.36-1.34-.24-.4-.6-.71-1.02-.91-.48-.22-1.01-.33-1.54-.32h-3.01Zm9.39,6.46h-.77v-5.16h.79c.55-.04,1.08.19,1.43.61.36.52.53,1.15.49,1.79v.41c.03.62-.14,1.24-.5,1.75-.36.42-.89.65-1.44.61h0Zm-6.38-2.73h-1.42v-2.43h1.46c.34-.01.68.12.92.36.23.25.35.58.34.92.02.32-.1.63-.33.85-.27.21-.62.32-.97.29Z"/></g><g id="Caminho_405"><path class="cls-1" d="m28.2,61.22c0,.22-.09.42-.24.56l-2.45,2.45c-.16.16-.36.24-.57.24s-.41-.08-.56-.24l-2.45-2.45c-.31-.31-.31-.82,0-1.14.31-.31.82-.31,1.13,0l1.07,1.08v-6.22c0-.44.36-.8.8-.8s.81.36.81.8v6.22l1.07-1.08c.16-.15.35-.24.57-.24s.42.09.56.24.24.35.24.56Z"/></g><circle class="cls-3" cx="42.81" cy="42.81" r="42.31"/></g></svg>