<?xml version="1.0" encoding="UTF-8"?><svg id="Camada_2" xmlns="http://www.w3.org/2000/svg" xmlns:xlink="http://www.w3.org/1999/xlink" viewBox="0 0 87.32 87"><defs><style>.cls-1,.cls-2{fill:none;}.cls-3{clip-path:url(#clippath);}.cls-4{fill:#fff;}.cls-5{fill:url(#Nova_amostra_de_gradiente_1);}.cls-2{stroke:#1e8bb0;}</style><linearGradient id="Nova_amostra_de_gradiente_1" x1="726.83" y1="6181.84" x2="726.01" y2="6181.81" gradientTransform="translate(-90741.33 772771.91) scale(125 -125)" gradientUnits="userSpaceOnUse"><stop offset=".22" stop-color="#0b3b4b"/><stop offset="1" stop-color="#50d7e2"/></linearGradient><clipPath id="clippath"><rect class="cls-1" x="19.6" y="25.56" width="50.64" height="37.62"/></clipPath></defs><g id="Camada_1-2"><circle id="Elipse_21" class="cls-5" cx="44.82" cy="44.5" r="42.5"/><g id="Grupo_438"><g class="cls-3"><g id="Grupo_437"><path id="Caminho_425" class="cls-4" d="m33.85,52.2c-2.53,0-6.11.19-8.84,1.11-.72.21-1.4.54-2.02.96v7.72c.45-.23.91-.42,1.39-.59,2.97-.92,6.07-1.34,9.17-1.25,6,0,9.3,1.11,10.86,1.88v-7.78c-.57-.42-1.22-.74-1.9-.95-2.61-.91-6.15-1.09-8.66-1.09m0-.61c9.31,0,11.25,2.42,11.25,2.42v9.17s-2.75-2.42-11.55-2.42-11.25,2.41-11.25,2.41v-9.17s2.24-2.42,11.55-2.42"/><path id="Caminho_426" class="cls-4" d="m56.53,52.2c-2.53,0-6.11.19-8.84,1.11-.72.21-1.4.54-2.02.96v7.72c.45-.23.91-.42,1.39-.59,2.97-.92,6.07-1.34,9.17-1.25,6,0,9.3,1.11,10.86,1.88v-7.78c-.57-.42-1.22-.74-1.9-.95-2.61-.91-6.15-1.09-8.66-1.09m0-.61c9.31,0,11.25,2.42,11.25,2.42v9.17s-2.75-2.42-11.55-2.42-11.25,2.41-11.25,2.41v-9.17s2.24-2.42,11.55-2.42"/><path id="Caminho_427" class="cls-4" d="m57.74,25.56c-10.34,0-12.83,3.71-12.83,3.71v32.7s2.72-3.71,12.49-3.71,12.83,3.71,12.83,3.71V29.26s-2.15-3.71-12.49-3.71m9.49,24.58c-.08.37-.45.6-.82.52,0,0-.01,0-.02,0l-.46-.13c-5.47-1.49-11.24-1.49-16.72,0l-.46.13c-.06.02-.12.02-.17.02-.32,0-.59-.23-.66-.54-.1-.38.12-.76.49-.88l.46-.13c5.7-1.55,11.71-1.55,17.41,0l.46.13c.37.11.59.5.49.88m0-5.16c-.08.37-.45.6-.82.52,0,0-.01,0-.02,0l-.46-.13c-5.47-1.49-11.24-1.49-16.72,0l-.46.13c-.06.02-.12.02-.17.02-.32,0-.59-.23-.66-.54-.1-.38.12-.76.49-.88l.46-.13c5.7-1.55,11.71-1.55,17.41,0l.46.13c.37.11.59.5.49.88m0-5.16c-.08.37-.44.6-.81.52,0,0-.02,0-.03,0l-.46-.13c-5.47-1.49-11.24-1.49-16.72,0l-.46.13c-.06.02-.12.02-.17.02-.32,0-.59-.23-.66-.54-.1-.38.12-.76.49-.88l.46-.13c5.7-1.55,11.71-1.55,17.41,0l.46.13c.37.11.59.5.49.88m0-5.16c-.08.37-.44.6-.81.52,0,0-.02,0-.03,0l-.46-.13c-5.47-1.49-11.24-1.49-16.72,0l-.46.13c-.06.02-.12.02-.17.02-.32,0-.59-.23-.66-.54-.1-.38.12-.76.49-.88l.46-.13c5.7-1.55,11.71-1.55,17.41,0l.46.13c.37.11.59.5.49.88"/><path id="Caminho_428" class="cls-4" d="m32.42,25.56c-10.34,0-12.83,3.71-12.83,3.71v32.7s2.72-3.71,12.49-3.71,12.83,3.71,12.83,3.71V29.26s-2.15-3.71-12.49-3.71m9.49,24.58c-.08.37-.45.6-.82.52,0,0-.01,0-.02,0l-.46-.13c-5.47-1.49-11.24-1.49-16.72,0l-.46.13c-.06.02-.12.02-.17.02-.32,0-.59-.23-.66-.54-.1-.38.12-.76.49-.88l.46-.13c5.7-1.55,11.71-1.55,17.41,0l.46.13c.37.11.59.5.49.88m0-5.16c-.08.37-.45.6-.82.52,0,0-.01,0-.02,0l-.46-.13c-5.47-1.49-11.24-1.49-16.72,0l-.46.13c-.06.02-.12.02-.17.02-.32,0-.59-.23-.66-.54-.1-.38.12-.76.49-.88l.46-.13c5.7-1.55,11.71-1.55,17.41,0l.46.13c.37.11.59.5.49.88m0-5.16c-.08.37-.44.6-.81.52,0,0-.02,0-.03,0l-.46-.13c-5.47-1.49-11.24-1.49-16.72,0l-.46.13c-.06.02-.12.02-.17.02-.32,0-.59-.23-.66-.54-.1-.38.12-.76.49-.88l.46-.13c5.7-1.55,11.71-1.55,17.41,0l.46.13c.37.11.59.5.49.88m0-5.16c-.08.37-.44.6-.81.52,0,0-.02,0-.03,0l-.46-.13c-5.47-1.49-11.24-1.49-16.72,0l-.46.13c-.06.02-.12.02-.17.02-.32,0-.59-.23-.66-.54-.1-.38.12-.76.49-.88l.46-.13c5.7-1.55,11.71-1.55,17.41,0l.46.13c.37.11.59.5.49.88"/></g></g></g><circle class="cls-2" cx="42.81" cy="42.81" r="42.31"/></g></svg>