<?xml version="1.0" encoding="UTF-8"?><svg id="Camada_2" xmlns="http://www.w3.org/2000/svg" xmlns:xlink="http://www.w3.org/1999/xlink" viewBox="0 0 87.49 87.44"><defs><style>.cls-1{stroke:#fff;stroke-linecap:round;stroke-miterlimit:10;stroke-width:3px;}.cls-1,.cls-2{fill:none;}.cls-3{fill:#fff;}.cls-4{fill:url(#Nova_amostra_de_gradiente_1);}.cls-2{stroke:#1e8bb0;}</style><linearGradient id="Nova_amostra_de_gradiente_1" x1="1349.52" y1="6409.73" x2="1348.7" y2="6409.7" gradientTransform="translate(-168577.44 801258.61) scale(125 -125)" gradientUnits="userSpaceOnUse"><stop offset=".22" stop-color="#0b3b4b"/><stop offset="1" stop-color="#50d7e2"/></linearGradient></defs><g id="Camada_1-2"><circle id="Elipse_21" class="cls-4" cx="44.99" cy="44.94" r="42.5"/><g id="Grupo_110"><path id="Subtração_9" class="cls-3" d="m44.68,72.45c-1.41-.17-2.76-.67-3.94-1.46-.51-.31-.98-.67-1.42-1.08h10.71c-.43.41-.91.77-1.42,1.08-1.18.79-2.53,1.29-3.94,1.46Zm6.06-3.38h-12.11c-.17-.25-.27-.54-.28-.85v-.84h12.68v.84c-.02.3-.11.59-.28.85h0Zm.28-2.54h-12.68v-1.69h12.68v1.69h0Zm0-2.54h-12.68v-1.69h12.68v1.69Zm0-1.75h0v-.78h-5.07v-5.39l3.34-6.67h0c.03-.06.05-.12.05-.19,0-.23-.19-.42-.42-.42-.16,0-.3.09-.37.24h0l-3.85,6-3.85-6.01h0c-.07-.14-.21-.23-.37-.24-.23,0-.42.19-.42.42,0,.07.02.13.05.19h0l3.34,6.67v5.39h-5.07v.78c0-.11-.01-.22-.02-.36-.18-1.89-1.51-4.08-3.06-6.63-2.21-3.63-4.95-8.16-4.95-13.02,0-7.11,6.45-12.89,14.37-12.89s14.37,5.78,14.37,12.89c0,4.87-2.74,9.39-4.95,13.03-1.54,2.54-2.88,4.74-3.06,6.63-.01.12-.02.24-.02.36h0Z"/><line id="Linha_1" class="cls-1" x1="44.74" y1="13.93" x2="44.74" y2="23.85"/><line id="Linha_2" class="cls-1" x1="28.82" y1="18.51" x2="36.85" y2="25.88"/><line id="Linha_3" class="cls-1" x1="59.34" y1="18.51" x2="51.31" y2="25.88"/></g><circle class="cls-2" cx="42.81" cy="42.81" r="42.31"/></g></svg>