<?xml version="1.0" encoding="UTF-8"?><svg id="Camada_2" xmlns="http://www.w3.org/2000/svg" xmlns:xlink="http://www.w3.org/1999/xlink" viewBox="0 0 87.62 86.98"><defs><style>.cls-1{fill:#fff;}.cls-2{fill:url(#Nova_amostra_de_gradiente_1);}.cls-3{fill:none;stroke:#1e8bb0;}</style><linearGradient id="Nova_amostra_de_gradiente_1" x1="1048.35" y1="6297.73" x2="1047.53" y2="6297.7" gradientTransform="translate(-130931.06 787257.77) scale(125 -125)" gradientUnits="userSpaceOnUse"><stop offset=".22" stop-color="#0b3b4b"/><stop offset="1" stop-color="#50d7e2"/></linearGradient></defs><g id="Camada_1-2"><circle id="Elipse_21" class="cls-2" cx="45.12" cy="44.48" r="42.5"/><path id="Subtração_61" class="cls-1" d="m38.15,41.37c1.28-5.41-2.07-10.83-7.48-12.12-5.41-1.28-10.83,2.07-12.12,7.48-1.28,5.41,2.07,10.83,7.48,12.12s10.83-2.07,12.12-7.48Zm10.76-6.01c1.28-5.41-2.07-10.83-7.48-12.12s-10.83,2.07-12.12,7.48c-1.28,5.41,2.07,10.83,7.48,12.12,5.41,1.28,10.83-2.07,12.12-7.48Zm14.53,1.65c1.28-5.41-2.07-10.83-7.48-12.12-5.41-1.28-10.83,2.07-12.12,7.48-1.28,5.41,2.07,10.83,7.48,12.12,5.41,1.28,10.83-2.07,12.12-7.48Zm-2.32,9.8c1.28-5.41-2.07-10.83-7.48-12.12s-10.83,2.07-12.12,7.48c-1.28,5.41,2.07,10.83,7.48,12.12,5.41,1.28,10.83-2.07,12.12-7.48Zm-13.29,2.92c1.28-5.41-2.07-10.83-7.48-12.12-5.41-1.28-10.83,2.07-12.12,7.48-1.28,5.41,2.07,10.83,7.48,12.12,5.41,1.28,10.83-2.07,12.12-7.48Zm24.05-4.65c1.28-5.41-2.07-10.83-7.48-12.12-5.41-1.28-10.83,2.07-12.12,7.48s2.07,10.83,7.48,12.12c5.41,1.28,10.83-2.07,12.12-7.48Zm-22.33,17.04c0-1.61-1.52-2.91-3.39-2.91s-3.39,1.3-3.39,2.91,1.52,2.91,3.39,2.91,3.39-1.3,3.39-2.91Zm7.28,1.95c0-1.08-.99-1.95-2.22-1.95s-2.22.87-2.22,1.95.99,1.95,2.22,1.95,2.22-.87,2.22-1.95Z"/><circle class="cls-3" cx="42.81" cy="42.81" r="42.31"/></g></svg>