<?xml version="1.0" encoding="UTF-8"?><svg id="Camada_2" xmlns="http://www.w3.org/2000/svg" xmlns:xlink="http://www.w3.org/1999/xlink" viewBox="0 0 87.49 86.78"><defs><style>.cls-1{fill:#fff;}.cls-2{fill:url(#Gradiente_sem_nome_12);}.cls-3{fill:none;stroke:#1e8bb0;}</style><linearGradient id="Gradiente_sem_nome_12" x1="1673.36" y1="6181.89" x2="1672.59" y2="6181.61" gradientTransform="translate(-209061.5 772757.77) scale(125 -125)" gradientUnits="userSpaceOnUse"><stop offset=".22" stop-color="#0b3b4b"/><stop offset="1" stop-color="#50d7e2"/></linearGradient></defs><g id="Camada_1-2"><circle id="Elipse_21" class="cls-2" cx="44.99" cy="44.28" r="42.5"/><path class="cls-1" d="m38.74,56.04c0-8.56,1.23-11.35,8.81-15.74,3.3-1.89,4.17-3.7,4.17-6.38,0-2.97-2.5-5.4-6.35-5.4-4.64,0-7.51,2.94-7.51,7.62h-10.04c0-10.48,7.61-16.54,17.88-16.54s16.46,6.6,16.46,14.4c0,5.98-2.25,9.54-9.07,13.31-3.66,2.03-4.1,4.21-4.1,8.74h-10.26Zm5.06,3.24c2.83,0,5,2.08,5,4.8s-2.17,4.8-5,4.8-5-2.08-5-4.8,2.17-4.8,5-4.8Z"/><circle class="cls-3" cx="42.81" cy="42.81" r="42.31"/></g></svg>