<?xml version="1.0" encoding="UTF-8"?><svg id="Camada_2" xmlns="http://www.w3.org/2000/svg" xmlns:xlink="http://www.w3.org/1999/xlink" viewBox="0 0 87.63 86.84"><defs><style>.cls-1{fill:#fff;}.cls-2{fill:url(#Nova_amostra_de_gradiente_1);}.cls-3{fill:none;stroke:#1e8bb0;}</style><linearGradient id="Nova_amostra_de_gradiente_1" x1="1048.35" y1="6181.76" x2="1047.53" y2="6181.73" gradientTransform="translate(-130931.06 772761.68) scale(125 -125)" gradientUnits="userSpaceOnUse"><stop offset=".22" stop-color="#0b3b4b"/><stop offset="1" stop-color="#50d7e2"/></linearGradient></defs><g id="Camada_1-2"><circle id="Elipse_21" class="cls-2" cx="45.13" cy="44.34" r="42.5"/><g id="download-2"><g id="Caminho_404"><path class="cls-1" d="m67.56,51.4v6.77c0,3.53-2.87,6.41-6.4,6.41H28.67c-3.53,0-6.41-2.88-6.41-6.41v-6.77c0-1.3,1.06-2.35,2.35-2.35s2.35,1.05,2.35,2.35v6.77c0,.95.77,1.71,1.71,1.71h32.49c.95,0,1.71-.77,1.71-1.71v-6.77c0-1.3,1.05-2.35,2.35-2.35s2.34,1.05,2.34,2.35Z"/></g><g id="Caminho_405"><path class="cls-1" d="m54.7,47.91l-8.24,8.22c-.46.39-1.01.58-1.56.58-.6,0-1.19-.23-1.65-.68l-8.12-8.12c-.93-.94-.92-2.43,0-3.33.93-.91,2.41-.91,3.32.02l4.11,4.11v-21.41c0-1.3,1.05-2.35,2.34-2.35s2.35,1.05,2.35,2.35v21.41l4.11-4.12c.92-.91,2.41-.91,3.32,0s.91,2.41,0,3.32Z"/></g></g><circle class="cls-3" cx="42.81" cy="42.81" r="42.31"/></g></svg>