<?xml version="1.0" encoding="UTF-8"?><svg id="Camada_2" xmlns="http://www.w3.org/2000/svg" xmlns:xlink="http://www.w3.org/1999/xlink" viewBox="0 0 87.32 86.87"><defs><style>.cls-1{fill:#fff;}.cls-2{fill:url(#Nova_amostra_de_gradiente_1);}.cls-3{fill:none;stroke:#1e8bb0;}</style><linearGradient id="Nova_amostra_de_gradiente_1" x1="1349.52" y1="6181.77" x2="1348.7" y2="6181.74" gradientTransform="translate(-168577.44 772763.26) scale(125 -125)" gradientUnits="userSpaceOnUse"><stop offset=".22" stop-color="#0b3b4b"/><stop offset="1" stop-color="#50d7e2"/></linearGradient></defs><g id="Camada_1-2"><circle id="Elipse_21" class="cls-2" cx="44.82" cy="44.37" r="42.5"/><g id="Grupo_245"><path id="Caminho_316" class="cls-1" d="m57.02,40.74c-.48,0-.87.39-.87.87v5.23c0,6.25-5.07,11.33-11.33,11.33s-11.33-5.07-11.33-11.33v-5.23c0-.48-.4-.87-.87-.87s-.87.39-.87.87v5.23c0,6.88,5.34,12.58,12.2,13.03v7.01h-6.1c-.48,0-.87.39-.87.87s.39.86.87.86h13.94c.48,0,.87-.39.87-.86s-.4-.87-.87-.87h-6.1v-7.01c6.86-.45,12.2-6.16,12.2-13.03v-5.23c0-.48-.39-.87-.87-.87Z"/><path class="cls-1" d="m44.82,22.43c-5.29,0-9.59,4.3-9.59,9.59v14.81c0,5.29,4.3,9.58,9.59,9.58s9.58-4.29,9.58-9.58v-14.81c0-5.29-4.29-9.59-9.58-9.59Zm.12,5.36c.08-.08.2-.12.31-.12.23,0,.43.18.44.41v.05c0,.1-.05.21-.13.28l-4.35,4.35c-.07.08-.18.12-.29.13h-.05c-.23-.01-.4-.21-.4-.44,0-.11.04-.22.12-.31l4.35-4.35Zm-4.79,1.3l1.74-1.74c.08-.09.2-.13.31-.13.12,0,.23.05.31.13.17.17.17.44,0,.62l-1.74,1.74c-.17.16-.43.16-.59,0-.18-.16-.19-.44-.02-.62Zm12.51,17.74c0,4.33-3.51,7.84-7.84,7.84s-7.84-3.51-7.84-7.84v-1.74c0,4.33,3.51,7.84,7.84,7.84s7.84-3.51,7.84-7.84v1.74Zm0-4.36h-15.69v-1.74h15.69v1.74Z"/></g><circle class="cls-3" cx="42.81" cy="42.81" r="42.31"/></g></svg>