<?xml version="1.0" encoding="UTF-8"?><svg id="Camada_2" xmlns="http://www.w3.org/2000/svg" xmlns:xlink="http://www.w3.org/1999/xlink" viewBox="0 0 86.96 86.78"><defs><style>.cls-1{fill:#fff;}.cls-2{fill:url(#Nova_amostra_de_gradiente_1);}.cls-3{fill:none;stroke:#1e8bb0;}</style><linearGradient id="Nova_amostra_de_gradiente_1" x1="1672.08" y1="6297.07" x2="1671.31" y2="6296.79" gradientTransform="translate(-208905.15 787156.72) scale(125 -125)" gradientUnits="userSpaceOnUse"><stop offset=".22" stop-color="#0b3b4b"/><stop offset="1" stop-color="#50d7e2"/></linearGradient></defs><g id="Camada_1-2"><circle id="Elipse_21" class="cls-2" cx="44.46" cy="44.28" r="42.5"/><path id="Caminho_43" class="cls-1" d="m37.05,57.19s-.09,0-.13,0c-.14,0-.22.01-.32.23-.18.52-.28,1.06-.3,1.61-.03.45-.09.9-.18,1.34-.54,2.3-2.55,3.97-4.91,4.08h-.07c-1.61-.09-3.12-.8-4.23-1.98-.29-.28-2.02-2-1.98-4.3.11-2.36,1.77-4.37,4.07-4.91.45-.09.9-.15,1.35-.18.55-.02,1.09-.12,1.61-.3.14-.06.27-.12.22-.44l-7.63-7.63,7.84-7.84c.03-.14-.06-.29-.21-.32-.5-.18-1.02-.27-1.55-.29-.44-.03-.88-.09-1.31-.17-2.25-.53-3.87-2.48-3.97-4.78.25-3.24,2.8-5.82,6.04-6.11h.07c2.3.1,4.26,1.73,4.78,3.97.08.43.14.87.17,1.3.02.53.11,1.05.29,1.55.09.19.15.21.28.21h.04l8.03-8.03,8.09,8.09.06.28c.3,1.06-.25,2.18-1.27,2.6-.66.25-1.35.4-2.06.42-.34.02-.68.07-1.02.13-1.26.32-2.18,1.42-2.26,2.71.08.98.52,1.89,1.23,2.57l.07.07c.67.7,1.57,1.14,2.53,1.23,1.31-.07,2.42-.99,2.75-2.26.06-.34.11-.68.13-1.03.03-.7.17-1.39.42-2.05.33-.82,1.12-1.35,2-1.34.2,0,.4.02.6.06l.28.06,8.63,8.63-8.94,8.94-.31.05c-.14.02-.29.04-.43.04-.87.02-1.66-.51-1.98-1.32-.25-.64-.39-1.32-.41-2.01-.02-.33-.06-.66-.13-.99-.31-1.22-1.37-2.1-2.62-2.19h0c-.95.08-1.83.51-2.48,1.19l-.04.04-.04.04c-.69.65-1.12,1.53-1.19,2.48.08,1.25.97,2.31,2.18,2.62.33.06.66.11.99.13.69.03,1.37.17,2.02.42.96.38,1.5,1.4,1.28,2.41l-.05.31-8.36,8.36-7.71-7.71Z"/><circle class="cls-3" cx="42.81" cy="42.81" r="42.31"/></g></svg>