<?xml version="1.0" encoding="UTF-8"?><svg id="Camada_2" xmlns="http://www.w3.org/2000/svg" xmlns:xlink="http://www.w3.org/1999/xlink" viewBox="0 0 86.96 87.39"><defs><style>.cls-1{fill:#f2f2f2;}.cls-2{fill:url(#Nova_amostra_de_gradiente_1);}.cls-3{fill:none;stroke:#1e8bb0;}</style><linearGradient id="Nova_amostra_de_gradiente_1" x1="1672.21" y1="6071.2" x2="1671.4" y2="6071.17" gradientTransform="translate(-208914.4 758943) scale(125 -125)" gradientUnits="userSpaceOnUse"><stop offset=".22" stop-color="#0b3b4b"/><stop offset="1" stop-color="#50d7e2"/></linearGradient></defs><g id="Camada_1-2"><circle id="Elipse_21" class="cls-2" cx="44.46" cy="44.89" r="42.5"/><path id="Subtração_61" class="cls-1" d="m47.47,68.47h-21.17l2.18-17.8c-1.12-1-2.12-2.12-2.99-3.35-.83-1.15-1.52-2.4-2.05-3.71-.6-1.48-.92-3.06-.93-4.65-.05-3.09.56-6.16,1.79-9,1.07-2.39,2.67-4.5,4.68-6.18,1.92-1.59,4.13-2.8,6.51-3.56,2.35-.76,4.81-1.15,7.29-1.14,2.41,0,4.82.37,7.11,1.11,1.07.35,2.11.8,3.1,1.34.94.51,1.82,1.13,2.62,1.83.88.78,1.65,1.68,2.28,2.68.59.95,1.07,1.97,1.44,3.04.7,2.25,1.2,4.56,1.51,6.91.1.6.2,1.23.3,1.85.73.99,1.52,1.95,2.35,2.87,1.57,1.79,3.18,3.65,2.91,4.27-.25.58-2.54,1.41-4.21,2.02-.54.2-1,.37-1.28.49h0c.1,2.29.07,4.58-.08,6.86-.1,1.77-.35,3.52-.76,5.24-.45,1.75-1.06,2.92-1.82,3.49-.67.43-1.47.63-2.26.57-1.06,0-2.99-.23-6.14-1.34-1.89-.66-3.34-1.33-3.36-1.34l.99,7.49h0Zm-15.03-26.17h0c.1.01.2.02.29.02l.55,1.21c.39-.03.77-.1,1.14-.22l.08-1.33s.06-.03.1-.05c.05-.02.1-.05.16-.08l1.07.77c.32-.22.62-.48.88-.76l-.59-1.19c.06-.07.11-.16.17-.24l1.31.13c.17-.35.3-.73.39-1.11l-1.1-.74c.01-.1.02-.2.02-.3l1.2-.55c-.03-.39-.1-.78-.21-1.16l-1.32-.08s-.03-.06-.04-.1c-.02-.05-.05-.11-.08-.17l.76-1.09c-.22-.33-.47-.62-.75-.89l-1.18.6c-.08-.06-.16-.11-.24-.17l.13-1.33c-.35-.17-.72-.3-1.1-.39l-.73,1.11c-.09-.01-.19-.02-.29-.02l-.55-1.21c-.39.03-.77.1-1.14.22l-.08,1.33s-.07.03-.1.05c-.05.02-.1.05-.16.08l-1.07-.77c-.32.22-.62.48-.88.76l.59,1.19c-.05.07-.11.15-.17.24l-1.31-.13c-.17.35-.3.73-.39,1.11l1.1.74c-.01.1-.02.19-.02.3l-1.2.55c.03.39.1.78.21,1.16l1.32.08v.02s.03.06.05.08c.03.05.05.11.08.17l-.77,1.09c.22.33.47.62.75.89l1.18-.6c.08.06.16.12.24.17l-.13,1.33c.35.17.72.3,1.1.39l.73-1.11h0Zm12.07-5.4h0l.64,1.34c.65-.05,1.3-.19,1.92-.4l.06-1.49c.27-.12.53-.25.78-.4l1.22.84c.54-.38,1.03-.82,1.46-1.32l-.69-1.32c.18-.24.34-.48.48-.74l1.47.11c.28-.6.49-1.23.61-1.88l-1.24-.8c.03-.23.04-.44.05-.65v-.23l1.33-.65c-.05-.66-.19-1.31-.4-1.94l-1.47-.06c-.11-.27-.25-.54-.39-.79l.83-1.23c-.37-.54-.81-1.04-1.31-1.48l-1.31.69c-.23-.18-.48-.34-.73-.49l.11-1.49c-.59-.28-1.22-.49-1.86-.62l-.78,1.26c-.21-.03-.43-.04-.65-.05h-.23l-.64-1.34c-.65.05-1.3.19-1.92.4l-.06,1.49c-.27.11-.53.25-.78.4l-1.22-.84c-.54.38-1.03.82-1.46,1.32l.68,1.32c-.18.24-.34.48-.48.74l-1.47-.11c-.28.6-.49,1.23-.61,1.88l1.24.8c-.03.23-.04.44-.05.65v.23l-1.33.65c.05.66.19,1.31.4,1.94l1.47.06c.11.27.25.54.39.79l-.83,1.23c.37.54.81,1.04,1.31,1.48l1.31-.69c.23.18.48.34.73.49l-.11,1.49c.59.28,1.22.49,1.86.62l.79-1.26c.22.03.44.04.65.05h.22Zm-11.61,2.8c-.56,0-1.07-.33-1.3-.84-.34-.73-.03-1.59.69-1.93.19-.09.4-.14.61-.14.56,0,1.07.33,1.3.84.34.73.03,1.59-.69,1.93-.19.09-.4.14-.61.14Zm11.57-6.28h-.09c-.9-.02-1.75-.4-2.36-1.06-1.27-1.36-1.23-3.48.1-4.79.62-.62,1.47-.97,2.35-.97h.09c1.89.08,3.35,1.67,3.28,3.56-.04.87-.4,1.69-1.02,2.3-.62.62-1.47.97-2.35.96Z"/><circle class="cls-3" cx="42.81" cy="42.81" r="42.31"/></g></svg>